<svg xmlns="http://www.w3.org/2000/svg" xmlns:xlink="http://www.w3.org/1999/xlink" width="1000" zoomAndPan="magnify" viewBox="0 0 750 749.999995" height="1000" preserveAspectRatio="xMidYMid meet" version="1.0"><defs><clipPath id="c20309a88e"><path d="M 0.347656 104.0625 L 749.652344 104.0625 L 749.652344 645.921875 L 0.347656 645.921875 Z M 0.347656 104.0625 " clip-rule="nonzero"/></clipPath></defs><g clip-path="url(#c20309a88e)"><path fill="#ff3131" d="M 707.773438 388.324219 C 707.613281 390.332031 706.746094 392.210938 705.339844 393.648438 C 693.027344 406.195312 680.710938 418.746094 668.398438 431.292969 C 666.164062 433.574219 663.113281 434.871094 659.921875 434.902344 C 634.949219 435.144531 609.976562 435.386719 585 435.628906 C 582.296875 435.65625 579.738281 434.410156 578.09375 432.269531 L 563.308594 413.046875 C 559.773438 408.453125 561.703125 401.746094 567.140625 399.730469 C 607.878906 384.632812 648.617188 369.535156 689.351562 354.441406 C 693.039062 353.074219 697.179688 354.375 699.417969 357.605469 C 702.097656 361.46875 704.96875 366.792969 706.59375 373.542969 C 707.988281 379.296875 708.074219 384.414062 707.773438 388.324219 Z M 562.066406 521.890625 C 562.066406 527.074219 557.863281 531.273438 552.691406 531.273438 L 202.777344 531.273438 C 197.59375 531.273438 193.394531 527.074219 193.394531 521.890625 L 193.394531 496.511719 C 193.394531 491.328125 197.59375 487.128906 202.777344 487.128906 L 552.691406 487.128906 C 557.863281 487.128906 562.066406 491.328125 562.066406 496.511719 Z M 191.128906 413.046875 L 176.339844 432.269531 C 174.695312 434.410156 172.136719 435.65625 169.4375 435.628906 C 144.460938 435.386719 119.488281 435.144531 94.511719 434.902344 C 91.320312 434.871094 88.273438 433.574219 86.035156 431.292969 C 73.722656 418.746094 61.414062 406.195312 49.101562 393.648438 C 47.691406 392.210938 46.820312 390.332031 46.664062 388.324219 C 46.363281 384.414062 46.449219 379.296875 47.835938 373.542969 C 49.46875 366.792969 52.335938 361.46875 55.015625 357.605469 C 57.257812 354.375 61.394531 353.074219 65.082031 354.441406 C 105.820312 369.535156 146.558594 384.632812 187.296875 399.730469 C 192.734375 401.746094 194.664062 408.453125 191.128906 413.046875 Z M 526.875 443.804688 L 228.585938 443.804688 C 224.738281 443.804688 222.542969 438.375 224.851562 434.570312 L 238.160156 412.632812 C 240.148438 409.355469 243.269531 407.429688 246.585938 407.429688 L 508.382812 407.429688 C 511.632812 407.429688 514.703125 409.28125 516.695312 412.453125 L 530.558594 434.488281 C 532.949219 438.28125 530.757812 443.804688 526.875 443.804688 Z M 175.003906 181.324219 C 175.242188 180.816406 175.472656 180.308594 175.710938 179.808594 C 178.640625 173.53125 181.222656 168 183.34375 163.472656 C 185.214844 159.5 188.914062 156.722656 193.253906 156.027344 C 250.8125 146.777344 309.558594 141.980469 367.882812 141.761719 C 369.292969 141.753906 370.6875 141.753906 372.105469 141.753906 C 436.640625 141.753906 501.660156 147.375 565.339844 158.433594 C 568.128906 158.917969 570.613281 160.257812 572.496094 162.207031 L 631.921875 290.125 L 592.117188 293.960938 C 449.527344 307.71875 305.941406 307.71875 163.351562 293.964844 L 123.539062 290.125 Z M 368.921875 120.707031 C 368.433594 120.707031 367.953125 120.707031 367.46875 120.707031 C 367.953125 120.707031 368.433594 120.707031 368.921875 120.707031 Z M 691.875 282.300781 C 689.300781 281.007812 686.429688 279.800781 682.839844 278.492188 C 679.800781 277.390625 674.460938 274.78125 669.46875 271.304688 C 671.289062 268.011719 673.121094 264.722656 674.941406 261.4375 C 678.484375 255.070312 684.386719 250.335938 691.378906 248.277344 C 709.210938 243.003906 727.046875 237.734375 744.894531 232.46875 C 748.824219 231.300781 750.773438 226.886719 748.980469 223.199219 C 746.703125 218.496094 744.417969 213.804688 742.136719 209.105469 C 739.9375 204.59375 735.230469 201.855469 730.21875 202.191406 C 711.640625 203.449219 693.050781 204.699219 674.46875 205.949219 C 669.621094 206.277344 665.933594 210.414062 666.15625 215.261719 C 666.433594 221.148438 666.707031 227.023438 666.984375 232.902344 C 667.242188 238.582031 665.535156 244.183594 662.144531 248.753906 C 660.28125 251.261719 658.414062 253.765625 656.550781 256.273438 C 646.597656 239.082031 619.0625 190.351562 604.503906 143.578125 C 601.058594 132.507812 591.730469 124.292969 580.316406 122.308594 C 579.007812 122.078125 577.691406 121.859375 576.371094 121.628906 C 566.949219 120.027344 557.257812 118.484375 547.28125 117.03125 C 494.824219 109.367188 434.921875 104.0625 368.921875 104.0625 C 367.375 104.0625 365.847656 104.0625 364.304688 104.074219 C 299.9375 104.308594 241.578125 109.566406 190.503906 117.03125 C 185.089844 117.8125 179.769531 118.632812 174.519531 119.46875 C 174.105469 119.535156 173.679688 119.601562 173.265625 119.671875 C 163.152344 121.296875 154.503906 127.792969 150.144531 137.054688 C 138.800781 161.234375 115.617188 211.453125 93.628906 256.527344 C 91.707031 253.933594 89.777344 251.34375 87.855469 248.753906 C 84.464844 244.183594 82.753906 238.582031 83.015625 232.902344 C 83.289062 227.023438 83.566406 221.148438 83.835938 215.261719 C 84.0625 210.414062 80.367188 206.277344 75.527344 205.949219 C 56.945312 204.699219 38.359375 203.449219 19.777344 202.191406 C 14.765625 201.855469 10.050781 204.59375 7.859375 209.105469 C 5.578125 213.804688 3.300781 218.496094 1.015625 223.199219 C -0.773438 226.886719 1.171875 231.300781 5.105469 232.46875 C 22.941406 237.734375 40.777344 243.003906 58.625 248.277344 C 65.613281 250.335938 71.515625 255.070312 75.054688 261.4375 C 77.300781 265.484375 79.542969 269.53125 81.789062 273.570312 C 74.65625 279.710938 65.808594 283.976562 61.671875 285.480469 C 58.910156 286.496094 56.179688 287.582031 53.546875 288.90625 C 23.136719 304.242188 2.160156 335.597656 1.835938 371.886719 C 1.816406 372.679688 4.296875 400.300781 4.460938 401.101562 C 5.105469 406.699219 18.476562 502.179688 21.714844 585.429688 C 22.3125 600.722656 22.566406 615.601562 22.335938 629.441406 C 22.933594 631.789062 23.914062 633.988281 25.214844 635.96875 C 29.113281 641.957031 35.875 645.921875 43.539062 645.921875 L 166.117188 645.921875 C 178.183594 645.921875 188.007812 636.105469 188.007812 624.027344 L 188.007812 607.320312 C 188.007812 595.246094 178.183594 585.429688 166.117188 585.429688 L 89.703125 585.429688 C 86.988281 585.429688 84.855469 583.109375 85.074219 580.402344 C 85.082031 580.367188 85.082031 580.335938 85.082031 580.304688 C 85.289062 577.902344 87.308594 576.050781 89.726562 576.0625 C 279.851562 576.609375 469.976562 577.148438 660.117188 577.707031 C 662.242188 577.707031 663.964844 579.4375 663.964844 581.5625 C 663.964844 582.632812 663.535156 583.597656 662.828125 584.292969 C 662.132812 584.996094 661.171875 585.429688 660.097656 585.429688 L 583.878906 585.429688 C 571.8125 585.429688 562 595.246094 562 607.320312 L 562 624.027344 C 562 636.105469 571.8125 645.921875 583.878906 645.921875 L 706.457031 645.921875 C 713.824219 645.921875 720.351562 642.269531 724.3125 636.667969 C 725.839844 634.535156 726.976562 632.121094 727.65625 629.523438 C 727.449219 616.394531 727.6875 601.632812 728.324219 585.429688 C 730.261719 536.972656 735.925781 475.71875 744.925781 407.207031 C 745.226562 404.9375 745.417969 403.464844 745.484375 402.890625 L 745.46875 402.882812 C 746.054688 398.003906 748.175781 373.578125 748.164062 372.644531 C 747.808594 334.25 726.25 299.640625 691.875 282.300781 " fill-opacity="1" fill-rule="nonzero"/></g></svg>