<svg xmlns="http://www.w3.org/2000/svg" xmlns:xlink="http://www.w3.org/1999/xlink" width="1000" zoomAndPan="magnify" viewBox="0 0 750 749.999995" height="1000" preserveAspectRatio="xMidYMid meet" version="1.0"><path fill="#000000" d="M 585.636719 238.300781 C 585.636719 131.78125 499.054688 45.125 392.636719 45.125 L 192.996094 45.125 C 86.578125 45.125 0 131.78125 0 238.300781 L 0 291.050781 C 0 374.140625 52.796875 447.699219 131.371094 474.082031 L 139.09375 476.675781 L 135.011719 483.726562 C 124.53125 501.820312 110.296875 530.238281 91.496094 570.613281 C 89.234375 575.453125 90.246094 581.253906 94.011719 585.046875 C 97.75 588.789062 103.707031 589.835938 108.390625 587.667969 L 334.523438 484.230469 L 392.636719 484.230469 C 499.054688 484.230469 585.636719 397.574219 585.636719 291.054688 Z M 560.023438 291.050781 C 560.023438 383.449219 484.933594 458.621094 392.636719 458.621094 L 331.734375 458.621094 C 329.914062 458.621094 328.070312 459.023438 326.410156 459.785156 L 129.726562 549.757812 L 138.246094 532.835938 C 146.019531 517.375 160.082031 490.125 166.839844 481.304688 L 167.601562 480.308594 L 168.675781 479.660156 C 172.035156 477.625 174.246094 474.234375 174.746094 470.335938 C 175.613281 463.539062 171.007812 457.277344 164.253906 456.082031 C 83.921875 442.023438 25.605469 372.617188 25.605469 291.054688 L 25.605469 238.300781 C 25.605469 145.90625 100.695312 70.730469 192.992188 70.730469 L 392.636719 70.730469 C 484.933594 70.730469 560.023438 145.902344 560.023438 238.300781 Z M 560.023438 291.050781 " fill-opacity="1" fill-rule="nonzero"/><path fill="#000000" d="M 141.960938 232.742188 C 121.898438 232.742188 105.582031 249.0625 105.582031 269.117188 C 105.582031 289.179688 121.902344 305.496094 141.960938 305.496094 C 162.015625 305.496094 178.335938 289.175781 178.335938 269.117188 C 178.335938 249.0625 162.019531 232.742188 141.960938 232.742188 Z M 141.960938 232.742188 " fill-opacity="1" fill-rule="nonzero"/><path fill="#000000" d="M 443.675781 232.742188 C 423.613281 232.742188 407.296875 249.0625 407.296875 269.117188 C 407.296875 289.179688 423.617188 305.496094 443.675781 305.496094 C 463.734375 305.496094 480.050781 289.175781 480.050781 269.117188 C 480.050781 249.0625 463.734375 232.742188 443.675781 232.742188 Z M 443.675781 232.742188 " fill-opacity="1" fill-rule="nonzero"/><path fill="#000000" d="M 292.816406 232.742188 C 272.757812 232.742188 256.441406 249.0625 256.441406 269.117188 C 256.441406 289.179688 272.761719 305.496094 292.816406 305.496094 C 312.875 305.496094 329.195312 289.175781 329.195312 269.117188 C 329.195312 249.0625 312.878906 232.742188 292.816406 232.742188 Z M 292.816406 232.742188 " fill-opacity="1" fill-rule="nonzero"/><path fill="#000000" d="M 259.382812 541.511719 L 233.027344 553.566406 C 266.644531 582.03125 309.984375 599.328125 357.359375 599.328125 L 415.476562 599.328125 L 641.605469 702.765625 C 646.289062 704.9375 652.246094 703.890625 655.988281 700.148438 C 659.75 696.351562 660.765625 690.554688 658.503906 685.710938 C 639.703125 645.339844 625.46875 616.921875 614.988281 598.828125 L 610.90625 591.773438 L 618.628906 589.183594 C 697.203125 562.796875 750 489.242188 750 406.152344 L 750 353.398438 C 750 259.257812 682.292969 180.855469 593.109375 163.863281 C 596.523438 173.046875 599.292969 182.53125 601.433594 192.257812 C 601.480469 192.269531 601.523438 192.289062 601.574219 192.300781 C 601.519531 192.289062 601.46875 192.265625 601.414062 192.253906 C 604.664062 207.085938 606.496094 222.503906 606.496094 238.335938 L 606.496094 291.085938 C 606.496094 409.085938 510.578125 505.085938 392.664062 505.085938 L 339.082031 505.085938 M 575.253906 585.433594 L 575.25 585.421875 " fill-opacity="1" fill-rule="nonzero"/></svg>